# xmcd
#
# Track frame offsets:
#	150
#	22354
#	39219
#	52411
#	69273
#	78611
#	97544
#	108275
#	118192
#	141532
#	163100
#	179722
#	201909
#	219829
#
# Disc length: 3103 seconds
# Revision: 0
# Processed by: cddbd v1.5.2PL0 Copyright (c) Steve Scherf et al.
# Submitted via: dBpowerAMP V12.0
#
DISCID=ce0c1d0e
DTITLE=Putah Creek Crawdads - Going Back
DYEAR=2008
DGENRE=Country
TTITLE0=Crawdad Song
TTITLE1=All the Good Times
TTITLE2=Bottle of Wine
TTITLE3=Ashokan Farewell
TTITLE4=I'm Goin' Back to Where I Came From
TTITLE5=A Beautiful Life
TTITLE6=Well, Well, Well
TTITLE7=My Walking Shoes
TTITLE8=Hard Times Come Again No More
TTITLE9=Midnight Special
TTITLE10=Angel Band
TTITLE11=When You and I Were Young, Maggie
TTITLE12=The Rose of Allendale
TTITLE13=Who Will Sing for Me?
EXTD=
EXTT0=
EXTT1=
EXTT2=
EXTT3=
EXTT4=
EXTT5=
EXTT6=
EXTT7=
EXTT8=
EXTT9=
EXTT10=
EXTT11=
EXTT12=
EXTT13=
PLAYORDER=
